<svg width="36" height="37" viewBox="0 0 36 37" fill="none" xmlns="http://www.w3.org/2000/svg">
<path d="M17.9988 36.0431C17.5322 36.0431 17.0877 35.9556 16.6653 35.7806C16.2418 35.6056 15.8551 35.3577 15.5051 35.0368L1.46133 20.9931C1.14049 20.6431 0.892578 20.2563 0.717578 19.8328C0.542578 19.4105 0.455078 18.966 0.455078 18.4993C0.455078 18.0326 0.542578 17.5806 0.717578 17.1431C0.892578 16.7056 1.14049 16.3264 1.46133 16.0056L15.5051 1.96182C15.8551 1.61182 16.2418 1.35632 16.6653 1.19532C17.0877 1.03548 17.5322 0.955566 17.9988 0.955566C18.4655 0.955566 18.9176 1.03548 19.3551 1.19532C19.7926 1.35632 20.1717 1.61182 20.4926 1.96182L34.5363 16.0056C34.8863 16.3264 35.1418 16.7056 35.3028 17.1431C35.4627 17.5806 35.5426 18.0326 35.5426 18.4993C35.5426 18.966 35.4627 19.4105 35.3028 19.8328C35.1418 20.2563 34.8863 20.6431 34.5363 20.9931L20.4926 35.0368C20.1717 35.3577 19.7926 35.6056 19.3551 35.7806C18.9176 35.9556 18.4655 36.0431 17.9988 36.0431ZM16.2488 20.2493H19.7488V9.74932H16.2488V20.2493ZM17.9988 25.4993C18.4947 25.4993 18.9106 25.3313 19.2466 24.9953C19.5814 24.6605 19.7488 24.2451 19.7488 23.7493C19.7488 23.2535 19.5814 22.8376 19.2466 22.5016C18.9106 22.1667 18.4947 21.9993 17.9988 21.9993C17.503 21.9993 17.0877 22.1667 16.7528 22.5016C16.4168 22.8376 16.2488 23.2535 16.2488 23.7493C16.2488 24.2451 16.4168 24.6605 16.7528 24.9953C17.0877 25.3313 17.503 25.4993 17.9988 25.4993Z" fill="#D50101"/>
</svg>
