<svg width="58" height="40" viewBox="0 0 58 40" fill="none" xmlns="http://www.w3.org/2000/svg">
<path d="M22.5846 0.809604C21.5601 0.842753 20.5685 1.19058 19.7362 1.80865C19.4073 2.07527 19.1043 2.37436 18.8315 2.7017L17.2283 4.42426C14.7828 7.05048 10.1016 12.0755 3.94129 18.6825L0.555664 22.3174V24.0457C0.555664 27.9051 0.572452 34.8126 0.577116 34.8165C0.581779 34.8203 0.5995 34.8001 0.621884 34.7751C0.644269 34.75 4.95139 30.0833 10.1931 24.407L19.7232 14.0852V26.7114V39.3377H27.9914V22.3482C27.9914 6.34045 27.9914 5.34912 27.9755 5.22003C27.9437 4.82924 27.867 4.44374 27.747 4.07166C27.4692 3.20584 26.9388 2.45002 26.2286 1.90787C25.172 1.12061 23.8853 0.732819 22.5846 0.809604Z" fill="white"/>
<path d="M52.0359 0.809361C51.1012 0.843848 50.1923 1.13517 49.4029 1.6533C49.1773 1.80668 48.967 1.98288 48.7752 2.17931C48.7053 2.2506 48.2296 2.75735 47.7175 3.3113C46.2346 4.90668 42.8676 8.51844 34.8111 17.1659L30.0078 22.32L30.0171 27.6813C30.0218 30.6303 30.0255 33.4424 30.0255 33.9299C30.0255 34.4357 30.0255 34.8182 30.033 34.8182C30.0404 34.8182 34.3476 30.1524 39.6116 24.4501L49.1837 14.0821V18.5137V22.9453H57.4445V14.2063C57.4445 8.2776 57.4445 5.42596 57.437 5.34311C57.3951 4.43494 57.0943 3.55981 56.5724 2.82767C55.9372 1.97731 55.0545 1.36 54.0542 1.06659C53.4003 0.863868 52.7179 0.7769 52.0359 0.809361Z" fill="white"/>
</svg>
